<svg xmlns="http://www.w3.org/2000/svg" width="900" height="56" viewBox="0 0 900 56">
  <defs><style>text{font-family:'Courier New', Courier, monospace} </style></defs>
<path d="M 10 0 L 890 0 Q 900 0 900 10 L 900 56 L 0 56 L 0 10 Q 0 0 10 0 Z" fill="#161b22"/>
<path d="M 10 0 L 890 0 Q 900 0 900 10 L 900 56 L 0 56 L 0 10 Q 0 0 10 0 Z" fill="none" stroke="#21262d" stroke-width="1"/>
<rect x="1" y="36" width="898" height="20" fill="#0d1117"/>
<line x1="1" y1="36" x2="899" y2="36" stroke="#21262d" stroke-width="1"/>
<text x="14" y="23" font-size="11"><tspan fill="#56d364">loka@nobara:~$</tspan><tspan fill="#484f58"> git log --all --oneline</tspan></text>
<text x="886" y="23" font-size="11" fill="#f85149"      text-anchor="end">✕</text>
<text x="868" y="23" font-size="11" fill="#484f58" text-anchor="end">□</text>
<text x="850" y="23" font-size="11" fill="#484f58" text-anchor="end">─</text>
<text x="18" y="50" font-size="9" fill="#484f58" text-anchor="start">DATE</text>
<text x="110" y="50" font-size="9" fill="#484f58" text-anchor="start">TYPE</text>
<text x="252" y="50" font-size="9" fill="#484f58" text-anchor="start">REPOSITORY</text>
<text x="468" y="50" font-size="9" fill="#484f58" text-anchor="start">DETAILS</text>

</svg>