<svg xmlns="http://www.w3.org/2000/svg" width="900" height="184" viewBox="0 0 900 184">
  <defs><style>text{font-family:'Courier New', Courier, monospace} @keyframes fi{from{opacity:0;transform:translateY(4px)}to{opacity:1;transform:translateY(0)}}.c0{animation:fi .3s 0.00s ease both}.c1{animation:fi .3s 0.04s ease both}.c2{animation:fi .3s 0.08s ease both}.c3{animation:fi .3s 0.12s ease both}.c4{animation:fi .3s 0.16s ease both}.c5{animation:fi .3s 0.20s ease both}.c6{animation:fi .3s 0.24s ease both}.c7{animation:fi .3s 0.28s ease both}.c8{animation:fi .3s 0.32s ease both}.c9{animation:fi .3s 0.36s ease both}.c10{animation:fi .3s 0.40s ease both}.c11{animation:fi .3s 0.44s ease both}.c12{animation:fi .3s 0.48s ease both}.c13{animation:fi .3s 0.52s ease both}.c14{animation:fi .3s 0.56s ease both}.c15{animation:fi .3s 0.60s ease both}.c16{animation:fi .3s 0.64s ease both}.c17{animation:fi .3s 0.68s ease both}.c18{animation:fi .3s 0.72s ease both}.c19{animation:fi .3s 0.76s ease both}.c20{animation:fi .3s 0.80s ease both}.c21{animation:fi .3s 0.84s ease both}.c22{animation:fi .3s 0.88s ease both}.c23{animation:fi .3s 0.92s ease both}</style></defs>
<rect width="900" height="184" fill="#0d1117" rx="10"/>
<rect x="1" y="1" width="898" height="182" fill="none" stroke="#21262d" stroke-width="1" rx="10"/>
<rect width="900" height="36" fill="#161b22" rx="10"/>
<rect y="24" width="900" height="12" fill="#161b22"/>
<text x="14" y="23" font-size="13"><tspan fill="#56d364">loka@nobara:~$</tspan><tspan fill="#484f58"> cat languages.txt</tspan></text>
<text x="886" y="23" font-size="13" fill="#f85149"      text-anchor="end">✕</text>
<text x="868" y="23" font-size="13" fill="#484f58" text-anchor="end">□</text>
<text x="850" y="23" font-size="13" fill="#484f58" text-anchor="end">─</text>
<g class="c0">
  <rect x="22" y="56" width="75.0" height="28" rx="14" fill="#0d1117" stroke="#ef7a08" stroke-width="1.5"/>
  <circle cx="36" cy="70" r="4" fill="#ef7a08"/>
  <text x="44" y="74" font-size="14" fill="#c9d1d9">OCaml</text>
</g>
<g class="c1">
  <rect x="105.0" y="56" width="66.4" height="28" rx="14" fill="#0d1117" stroke="#e34c26" stroke-width="1.5"/>
  <circle cx="119.0" cy="70" r="4" fill="#e34c26"/>
  <text x="127.0" y="74" font-size="14" fill="#c9d1d9">HTML</text>
</g>
<g class="c2">
  <rect x="179.4" y="56" width="83.6" height="28" rx="14" fill="#0d1117" stroke="#3572A5" stroke-width="1.5"/>
  <circle cx="193.4" cy="70" r="4" fill="#3572A5"/>
  <text x="201.4" y="74" font-size="14" fill="#c9d1d9">Python</text>
</g>
<g class="c3">
  <rect x="271.0" y="56" width="40.6" height="28" rx="14" fill="#0d1117" stroke="#555555" stroke-width="1.5"/>
  <circle cx="285.0" cy="70" r="4" fill="#555555"/>
  <text x="293.0" y="74" font-size="14" fill="#c9d1d9">C</text>
</g>
<g class="c4">
  <rect x="319.6" y="56" width="66.4" height="28" rx="14" fill="#0d1117" stroke="#b07219" stroke-width="1.5"/>
  <circle cx="333.6" cy="70" r="4" fill="#b07219"/>
  <text x="341.6" y="74" font-size="14" fill="#c9d1d9">Java</text>
</g>
<g class="c5">
  <rect x="394.0" y="56" width="118.0" height="28" rx="14" fill="#0d1117" stroke="#f1e05a" stroke-width="1.5"/>
  <circle cx="408.0" cy="70" r="4" fill="#f1e05a"/>
  <text x="416.0" y="74" font-size="14" fill="#c9d1d9">JavaScript</text>
</g>
<g class="c6">
  <rect x="520.0" y="56" width="49.2" height="28" rx="14" fill="#0d1117" stroke="#00ADD8" stroke-width="1.5"/>
  <circle cx="534.0" cy="70" r="4" fill="#00ADD8"/>
  <text x="542.0" y="74" font-size="14" fill="#c9d1d9">Go</text>
</g>
<g class="c7">
  <rect x="577.2" y="56" width="118.0" height="28" rx="14" fill="#0d1117" stroke="#3178c6" stroke-width="1.5"/>
  <circle cx="591.2" cy="70" r="4" fill="#3178c6"/>
  <text x="599.2" y="74" font-size="14" fill="#c9d1d9">TypeScript</text>
</g>
<g class="c8">
  <rect x="703.2" y="56" width="57.8" height="28" rx="14" fill="#0d1117" stroke="#663399" stroke-width="1.5"/>
  <circle cx="717.2" cy="70" r="4" fill="#663399"/>
  <text x="725.2" y="74" font-size="14" fill="#c9d1d9">CSS</text>
</g>
<g class="c9">
  <rect x="769.0" y="56" width="66.4" height="28" rx="14" fill="#0d1117" stroke="#ededed" stroke-width="1.5"/>
  <circle cx="783.0" cy="70" r="4" fill="#ededed"/>
  <text x="791.0" y="74" font-size="14" fill="#c9d1d9">SWIG</text>
</g>
<g class="c10">
  <rect x="22" y="94" width="57.8" height="28" rx="14" fill="#0d1117" stroke="#4F5D95" stroke-width="1.5"/>
  <circle cx="36" cy="108" r="4" fill="#4F5D95"/>
  <text x="44" y="112" font-size="14" fill="#c9d1d9">PHP</text>
</g>
<g class="c11">
  <rect x="87.8" y="94" width="75.0" height="28" rx="14" fill="#0d1117" stroke="#89e051" stroke-width="1.5"/>
  <circle cx="101.8" cy="108" r="4" fill="#89e051"/>
  <text x="109.8" y="112" font-size="14" fill="#c9d1d9">Shell</text>
</g>
<g class="c12">
  <rect x="170.8" y="94" width="49.2" height="28" rx="14" fill="#0d1117" stroke="#178600" stroke-width="1.5"/>
  <circle cx="184.8" cy="108" r="4" fill="#178600"/>
  <text x="192.8" y="112" font-size="14" fill="#c9d1d9">C#</text>
</g>
<g class="c13">
  <rect x="228.0" y="94" width="66.4" height="28" rx="14" fill="#0d1117" stroke="#00B4AB" stroke-width="1.5"/>
  <circle cx="242.0" cy="108" r="4" fill="#00B4AB"/>
  <text x="250.0" y="112" font-size="14" fill="#c9d1d9">Dart</text>
</g>
<g class="c14">
  <rect x="302.4" y="94" width="49.2" height="28" rx="14" fill="#0d1117" stroke="#ccc" stroke-width="1.5"/>
  <circle cx="316.4" cy="108" r="4" fill="#ccc"/>
  <text x="324.4" y="112" font-size="14" fill="#c9d1d9">M4</text>
</g>
<g class="c15">
  <rect x="359.59999999999997" y="94" width="100.8" height="28" rx="14" fill="#0d1117" stroke="#427819" stroke-width="1.5"/>
  <circle cx="373.59999999999997" cy="108" r="4" fill="#427819"/>
  <text x="381.59999999999997" y="112" font-size="14" fill="#c9d1d9">Makefile</text>
</g>
<g class="c16">
  <rect x="468.4" y="94" width="57.8" height="28" rx="14" fill="#0d1117" stroke="#000080" stroke-width="1.5"/>
  <circle cx="482.4" cy="108" r="4" fill="#000080"/>
  <text x="490.4" y="112" font-size="14" fill="#c9d1d9">Lua</text>
</g>
<g class="c17">
  <rect x="534.1999999999999" y="94" width="66.4" height="28" rx="14" fill="#0d1117" stroke="#0298c3" stroke-width="1.5"/>
  <circle cx="548.1999999999999" cy="108" r="4" fill="#0298c3"/>
  <text x="556.1999999999999" y="112" font-size="14" fill="#c9d1d9">Perl</text>
</g>
<g class="c18">
  <rect x="608.5999999999999" y="94" width="118.0" height="28" rx="14" fill="#0d1117" stroke="#384d54" stroke-width="1.5"/>
  <circle cx="622.5999999999999" cy="108" r="4" fill="#384d54"/>
  <text x="630.5999999999999" y="112" font-size="14" fill="#c9d1d9">Dockerfile</text>
</g>
<g class="c19">
  <rect x="734.5999999999999" y="94" width="118.0" height="28" rx="14" fill="#0d1117" stroke="#012456" stroke-width="1.5"/>
  <circle cx="748.5999999999999" cy="108" r="4" fill="#012456"/>
  <text x="756.5999999999999" y="112" font-size="14" fill="#c9d1d9">PowerShell</text>
</g>
<g class="c20">
  <rect x="22" y="132" width="66.4" height="28" rx="14" fill="#0d1117" stroke="#c6538c" stroke-width="1.5"/>
  <circle cx="36" cy="146" r="4" fill="#c6538c"/>
  <text x="44" y="150" font-size="14" fill="#c9d1d9">SCSS</text>
</g>
<g class="c21">
  <rect x="96.4" y="132" width="66.4" height="28" rx="14" fill="#0d1117" stroke="#878787" stroke-width="1.5"/>
  <circle cx="110.4" cy="146" r="4" fill="#878787"/>
  <text x="118.4" y="150" font-size="14" fill="#c9d1d9">Hack</text>
</g>
<g class="c22">
  <rect x="170.8" y="132" width="83.6" height="28" rx="14" fill="#0d1117" stroke="#F18E33" stroke-width="1.5"/>
  <circle cx="184.8" cy="146" r="4" fill="#F18E33"/>
  <text x="192.8" y="150" font-size="14" fill="#c9d1d9">Kotlin</text>
</g>
<g class="c23">
  <rect x="262.4" y="132" width="75.0" height="28" rx="14" fill="#0d1117" stroke="#a52a22" stroke-width="1.5"/>
  <circle cx="276.4" cy="146" r="4" fill="#a52a22"/>
  <text x="284.4" y="150" font-size="14" fill="#c9d1d9">Jinja</text>
</g>

</svg>