<svg xmlns="http://www.w3.org/2000/svg" width="900" height="1796" viewBox="0 0 900 1796">
  <defs><style>text{font-family:'Courier New', Courier, monospace} @keyframes sl{from{opacity:0;transform:translateX(-12px)}to{opacity:1;transform:translateX(0)}}.r0{animation:sl .3s 0.00s ease forwards;opacity:0}.r1{animation:sl .3s 0.05s ease forwards;opacity:0}.r2{animation:sl .3s 0.10s ease forwards;opacity:0}.r3{animation:sl .3s 0.15s ease forwards;opacity:0}.r4{animation:sl .3s 0.20s ease forwards;opacity:0}.r5{animation:sl .3s 0.25s ease forwards;opacity:0}.r6{animation:sl .3s 0.30s ease forwards;opacity:0}.r7{animation:sl .3s 0.35s ease forwards;opacity:0}.r8{animation:sl .3s 0.40s ease forwards;opacity:0}.r9{animation:sl .3s 0.45s ease forwards;opacity:0}.r10{animation:sl .3s 0.50s ease forwards;opacity:0}.r11{animation:sl .3s 0.55s ease forwards;opacity:0}.r12{animation:sl .3s 0.60s ease forwards;opacity:0}.r13{animation:sl .3s 0.65s ease forwards;opacity:0}.r14{animation:sl .3s 0.70s ease forwards;opacity:0}.r15{animation:sl .3s 0.75s ease forwards;opacity:0}.r16{animation:sl .3s 0.80s ease forwards;opacity:0}.r17{animation:sl .3s 0.85s ease forwards;opacity:0}.r18{animation:sl .3s 0.90s ease forwards;opacity:0}.r19{animation:sl .3s 0.95s ease forwards;opacity:0}.r20{animation:sl .3s 1.00s ease forwards;opacity:0}.r21{animation:sl .3s 1.05s ease forwards;opacity:0}.r22{animation:sl .3s 1.10s ease forwards;opacity:0}.r23{animation:sl .3s 1.15s ease forwards;opacity:0}.r24{animation:sl .3s 1.20s ease forwards;opacity:0}.r25{animation:sl .3s 1.25s ease forwards;opacity:0}.r26{animation:sl .3s 1.30s ease forwards;opacity:0}.r27{animation:sl .3s 1.35s ease forwards;opacity:0}.r28{animation:sl .3s 1.40s ease forwards;opacity:0}.r29{animation:sl .3s 1.45s ease forwards;opacity:0}.r30{animation:sl .3s 1.50s ease forwards;opacity:0}.r31{animation:sl .3s 1.55s ease forwards;opacity:0}.r32{animation:sl .3s 1.60s ease forwards;opacity:0}.r33{animation:sl .3s 1.65s ease forwards;opacity:0}.r34{animation:sl .3s 1.70s ease forwards;opacity:0}.r35{animation:sl .3s 1.75s ease forwards;opacity:0}.r36{animation:sl .3s 1.80s ease forwards;opacity:0}.r37{animation:sl .3s 1.85s ease forwards;opacity:0}.r38{animation:sl .3s 1.90s ease forwards;opacity:0}.r39{animation:sl .3s 1.95s ease forwards;opacity:0}.r40{animation:sl .3s 2.00s ease forwards;opacity:0}.r41{animation:sl .3s 2.05s ease forwards;opacity:0}.r42{animation:sl .3s 2.10s ease forwards;opacity:0}.r43{animation:sl .3s 2.15s ease forwards;opacity:0}.r44{animation:sl .3s 2.20s ease forwards;opacity:0}.r45{animation:sl .3s 2.25s ease forwards;opacity:0}.r46{animation:sl .3s 2.30s ease forwards;opacity:0}.r47{animation:sl .3s 2.35s ease forwards;opacity:0}.r48{animation:sl .3s 2.40s ease forwards;opacity:0}.r49{animation:sl .3s 2.45s ease forwards;opacity:0}.r50{animation:sl .3s 2.50s ease forwards;opacity:0}.r51{animation:sl .3s 2.55s ease forwards;opacity:0}.r52{animation:sl .3s 2.60s ease forwards;opacity:0}</style></defs>
<rect width="900" height="1796" fill="#0d1117" rx="10"/>
<path d="M 10 0 L 890 0 Q 900 0 900 10 L 900 36 L 0 36 L 0 10 Q 0 0 10 0 Z" fill="#161b22"/>
<line x1="1" y1="36" x2="899" y2="36" stroke="#21262d" stroke-width="1"/>
<text x="14" y="23" font-size="13"><tspan fill="#56d364">loka@nobara:~$</tspan><tspan fill="#484f58"> gh pr list --author @me --state all</tspan></text>
<text x="886" y="23" font-size="13" fill="#f85149"      text-anchor="end">✕</text>
<text x="868" y="23" font-size="13" fill="#484f58" text-anchor="end">□</text>
<text x="850" y="23" font-size="13" fill="#484f58" text-anchor="end">─</text>
<text x="14"              y="50" font-size="11" fill="#484f58">●</text>
<text x="44"  y="50" font-size="11" fill="#484f58">REPOSITORY</text>
<text x="270" y="50" font-size="11" fill="#484f58">TITLE</text>
<text x="882"  y="50" font-size="11" fill="#484f58" text-anchor="end">DATE</text>
<line x1="1" y1="56" x2="899" y2="56" stroke="#21262d" stroke-width="0.5"/>
<rect x="1" y="56" width="898" height="24" fill="#161b22"/>
<text x="18" y="72" font-size="12" fill="#58a6ff" font-weight="bold">🔐 Security patches (CVE)</text>
<text x="882" y="72" font-size="11" fill="#484f58" text-anchor="end">2 open · 2 closed · 9 merged</text>
<line x1="1" y1="80" x2="899" y2="80" stroke="#21262d" stroke-width="0.5"/>
<g class="r0">
  <circle cx="24" cy="95" r="5" fill="#56d364"/>
  <text x="44"  y="99" font-size="13" fill="#8b949e">xcp-ng-rpms/ldns</text>
  <text x="270" y="99" font-size="13" fill="#c9d1d9">fix: CVE-2026-10846</text>
  <text x="882"  y="99" font-size="12" fill="#484f58" text-anchor="end">2026-07-06</text>
</g>
<line x1="1" y1="110" x2="899" y2="110" stroke="#21262d" stroke-width="0.5"/>
<g class="r1">
  <circle cx="24" cy="125" r="5" fill="#56d364"/>
  <text x="44"  y="129" font-size="13" fill="#8b949e">xcp-ng-rpms/libreswan</text>
  <text x="270" y="129" font-size="13" fill="#c9d1d9">Fix: CVE-2026-12413, CVE-2026-50721 &amp; CVE-2026-50722</text>
  <text x="882"  y="129" font-size="12" fill="#484f58" text-anchor="end">2026-06-29</text>
</g>
<line x1="1" y1="140" x2="899" y2="140" stroke="#21262d" stroke-width="0.5"/>
<g class="r2">
  <circle cx="24" cy="155" r="5" fill="#f85149"/>
  <text x="44"  y="159" font-size="13" fill="#8b949e">xcp-ng-rpms/xapi</text>
  <text x="270" y="159" font-size="13" fill="#c9d1d9">Fix CVE-2011-5094 (Disable renegotiation)</text>
  <text x="882"  y="159" font-size="12" fill="#484f58" text-anchor="end">2026-06-30</text>
</g>
<line x1="1" y1="170" x2="899" y2="170" stroke="#21262d" stroke-width="0.5"/>
<g class="r3">
  <circle cx="24" cy="185" r="5" fill="#bc8cff"/>
  <text x="44"  y="189" font-size="13" fill="#8b949e">xcp-ng-rpms/lldpd</text>
  <text x="270" y="189" font-size="13" fill="#c9d1d9">Enable testsuite &amp; Fix CVE-2026-46433</text>
  <text x="882"  y="189" font-size="12" fill="#484f58" text-anchor="end">2026-06-16</text>
</g>
<line x1="1" y1="200" x2="899" y2="200" stroke="#21262d" stroke-width="0.5"/>
<g class="r4">
  <circle cx="24" cy="215" r="5" fill="#bc8cff"/>
  <text x="44"  y="219" font-size="13" fill="#8b949e">xcp-ng-rpms/kernel</text>
  <text x="270" y="219" font-size="13" fill="#c9d1d9">Add fix for CVE-2026-46243</text>
  <text x="882"  y="219" font-size="12" fill="#484f58" text-anchor="end">2026-06-04</text>
</g>
<line x1="1" y1="230" x2="899" y2="230" stroke="#21262d" stroke-width="0.5"/>
<g class="r5">
  <circle cx="24" cy="245" r="5" fill="#bc8cff"/>
  <text x="44"  y="249" font-size="13" fill="#8b949e">xcp-ng-rpms/openssh</text>
  <text x="270" y="249" font-size="13" fill="#c9d1d9">[8.3] - Add fix for CVE-2025-26465</text>
  <text x="882"  y="249" font-size="12" fill="#484f58" text-anchor="end">2026-02-03</text>
</g>
<line x1="1" y1="260" x2="899" y2="260" stroke="#21262d" stroke-width="0.5"/>
<g class="r6">
  <circle cx="24" cy="275" r="5" fill="#bc8cff"/>
  <text x="44"  y="279" font-size="13" fill="#8b949e">xcp-ng-rpms/openssh</text>
  <text x="270" y="279" font-size="13" fill="#c9d1d9">[8.2] - Add fix for CVE-2025-26465</text>
  <text x="882"  y="279" font-size="12" fill="#484f58" text-anchor="end">2025-03-24</text>
</g>
<line x1="1" y1="290" x2="899" y2="290" stroke="#21262d" stroke-width="0.5"/>
<g class="r7">
  <circle cx="24" cy="305" r="5" fill="#bc8cff"/>
  <text x="44"  y="309" font-size="13" fill="#8b949e">xcp-ng-rpms/openvswitch</text>
  <text x="270" y="309" font-size="13" fill="#c9d1d9">Integrate patch for CVE-2022-4337 and CVE-2022-4338</text>
  <text x="882"  y="309" font-size="12" fill="#484f58" text-anchor="end">2025-02-25</text>
</g>
<line x1="1" y1="320" x2="899" y2="320" stroke="#21262d" stroke-width="0.5"/>
<g class="r8">
  <circle cx="24" cy="335" r="5" fill="#bc8cff"/>
  <text x="44"  y="339" font-size="13" fill="#8b949e">xcp-ng-rpms/qemu</text>
  <text x="270" y="339" font-size="13" fill="#c9d1d9">[8.2] - Fix CVE-2023-3354</text>
  <text x="882"  y="339" font-size="12" fill="#484f58" text-anchor="end">2025-02-12</text>
</g>
<line x1="1" y1="350" x2="899" y2="350" stroke="#21262d" stroke-width="0.5"/>
<g class="r9">
  <circle cx="24" cy="365" r="5" fill="#bc8cff"/>
  <text x="44"  y="369" font-size="13" fill="#8b949e">xcp-ng-rpms/qemu</text>
  <text x="270" y="369" font-size="13" fill="#c9d1d9">[8.3] - Fix CVE-2023-3354</text>
  <text x="882"  y="369" font-size="12" fill="#484f58" text-anchor="end">2025-02-12</text>
</g>
<line x1="1" y1="380" x2="899" y2="380" stroke="#21262d" stroke-width="0.5"/>
<g class="r10">
  <circle cx="24" cy="395" r="5" fill="#f85149"/>
  <text x="44"  y="399" font-size="13" fill="#8b949e">xcp-ng-rpms/setup</text>
  <text x="270" y="399" font-size="13" fill="#c9d1d9">Import fix for CVE-2018-1113</text>
  <text x="882"  y="399" font-size="12" fill="#484f58" text-anchor="end">2025-02-04</text>
</g>
<line x1="1" y1="410" x2="899" y2="410" stroke="#21262d" stroke-width="0.5"/>
<g class="r11">
  <circle cx="24" cy="425" r="5" fill="#bc8cff"/>
  <text x="44"  y="429" font-size="13" fill="#8b949e">xcp-ng-rpms/openssl</text>
  <text x="270" y="429" font-size="13" fill="#c9d1d9">Import latest CVEs fixes from upstream</text>
  <text x="882"  y="429" font-size="12" fill="#484f58" text-anchor="end">2025-01-24</text>
</g>
<line x1="1" y1="440" x2="899" y2="440" stroke="#21262d" stroke-width="0.5"/>
<g class="r12">
  <circle cx="24" cy="455" r="5" fill="#bc8cff"/>
  <text x="44"  y="459" font-size="13" fill="#8b949e">xcp-ng-rpms/openssl</text>
  <text x="270" y="459" font-size="13" fill="#c9d1d9">8.2: Import latest CVEs fixes from upstream</text>
  <text x="882"  y="459" font-size="12" fill="#484f58" text-anchor="end">2024-11-04</text>
</g>
<rect x="1" y="470" width="898" height="24" fill="#161b22"/>
<text x="18" y="486" font-size="12" fill="#58a6ff" font-weight="bold">🔀 Backports</text>
<text x="882" y="486" font-size="11" fill="#484f58" text-anchor="end">1 closed · 1 merged</text>
<line x1="1" y1="494" x2="899" y2="494" stroke="#21262d" stroke-width="0.5"/>
<g class="r13">
  <circle cx="24" cy="509" r="5" fill="#f85149"/>
  <text x="44"  y="513" font-size="13" fill="#8b949e">NLnetLabs/ldns</text>
  <text x="270" y="513" font-size="13" fill="#c9d1d9">[BACKPORT] - Fix for CVE-2026-10846 to 1.7.x</text>
  <text x="882"  y="513" font-size="12" fill="#484f58" text-anchor="end">2026-07-01</text>
</g>
<line x1="1" y1="524" x2="899" y2="524" stroke="#21262d" stroke-width="0.5"/>
<g class="r14">
  <circle cx="24" cy="539" r="5" fill="#bc8cff"/>
  <text x="44"  y="543" font-size="13" fill="#8b949e">xapi-project/xen-api</text>
  <text x="270" y="543" font-size="13" fill="#c9d1d9">[backport] xapi: Improve error reporting when pool join fails on TLS verif</text>
  <text x="882"  y="543" font-size="12" fill="#484f58" text-anchor="end">2026-06-05</text>
</g>
<rect x="1" y="554" width="898" height="24" fill="#161b22"/>
<text x="18" y="570" font-size="12" fill="#58a6ff" font-weight="bold">✨ Features</text>
<text x="882" y="570" font-size="11" fill="#484f58" text-anchor="end">1 closed · 10 merged</text>
<line x1="1" y1="578" x2="899" y2="578" stroke="#21262d" stroke-width="0.5"/>
<g class="r15">
  <circle cx="24" cy="593" r="5" fill="#bc8cff"/>
  <text x="44"  y="597" font-size="13" fill="#8b949e">Motorsport-DB/website</text>
  <text x="270" y="597" font-size="13" fill="#c9d1d9">feat: driverdle update &amp; sitemap fixes</text>
  <text x="882"  y="597" font-size="12" fill="#484f58" text-anchor="end">2026-06-20</text>
</g>
<line x1="1" y1="608" x2="899" y2="608" stroke="#21262d" stroke-width="0.5"/>
<g class="r16">
  <circle cx="24" cy="623" r="5" fill="#bc8cff"/>
  <text x="44"  y="627" font-size="13" fill="#8b949e">xcp-ng-rpms/openssh</text>
  <text x="270" y="627" font-size="13" fill="#c9d1d9">Add: Enable ssh-rsa with warning</text>
  <text x="882"  y="627" font-size="12" fill="#484f58" text-anchor="end">2026-03-12</text>
</g>
<line x1="1" y1="638" x2="899" y2="638" stroke="#21262d" stroke-width="0.5"/>
<g class="r17">
  <circle cx="24" cy="653" r="5" fill="#bc8cff"/>
  <text x="44"  y="657" font-size="13" fill="#8b949e">LucienLassalle/SLE</text>
  <text x="270" y="657" font-size="13" fill="#c9d1d9">feat: auto-reload, disk buffering (WAL) and queue management</text>
  <text x="882"  y="657" font-size="12" fill="#484f58" text-anchor="end">2025-12-19</text>
</g>
<line x1="1" y1="668" x2="899" y2="668" stroke="#21262d" stroke-width="0.5"/>
<g class="r18">
  <circle cx="24" cy="683" r="5" fill="#bc8cff"/>
  <text x="44"  y="687" font-size="13" fill="#8b949e">LucienLassalle/SLE</text>
  <text x="270" y="687" font-size="13" fill="#c9d1d9">feat: glob patterns, rate limiting and batching</text>
  <text x="882"  y="687" font-size="12" fill="#484f58" text-anchor="end">2025-12-19</text>
</g>
<line x1="1" y1="698" x2="899" y2="698" stroke="#21262d" stroke-width="0.5"/>
<g class="r19">
  <circle cx="24" cy="713" r="5" fill="#bc8cff"/>
  <text x="44"  y="717" font-size="13" fill="#8b949e">Motorsport-DB/website</text>
  <text x="270" y="717" font-size="13" fill="#c9d1d9">feat: Major application improvments</text>
  <text x="882"  y="717" font-size="12" fill="#484f58" text-anchor="end">2025-12-08</text>
</g>
<line x1="1" y1="728" x2="899" y2="728" stroke="#21262d" stroke-width="0.5"/>
<g class="r20">
  <circle cx="24" cy="743" r="5" fill="#bc8cff"/>
  <text x="44"  y="747" font-size="13" fill="#8b949e">Motorsport-DB/website</text>
  <text x="270" y="747" font-size="13" fill="#c9d1d9">feat: Major application improvments</text>
  <text x="882"  y="747" font-size="12" fill="#484f58" text-anchor="end">2025-12-08</text>
</g>
<line x1="1" y1="758" x2="899" y2="758" stroke="#21262d" stroke-width="0.5"/>
<g class="r21">
  <circle cx="24" cy="773" r="5" fill="#f85149"/>
  <text x="44"  y="777" font-size="13" fill="#8b949e">Motorsport-DB/website</text>
  <text x="270" y="777" font-size="13" fill="#c9d1d9">Add error when cards is not valid</text>
  <text x="882"  y="777" font-size="12" fill="#484f58" text-anchor="end">2025-12-08</text>
</g>
<line x1="1" y1="788" x2="899" y2="788" stroke="#21262d" stroke-width="0.5"/>
<g class="r22">
  <circle cx="24" cy="803" r="5" fill="#bc8cff"/>
  <text x="44"  y="807" font-size="13" fill="#8b949e">Motorsport-DB/website</text>
  <text x="270" y="807" font-size="13" fill="#c9d1d9">feat: Major application improvments</text>
  <text x="882"  y="807" font-size="12" fill="#484f58" text-anchor="end">2025-12-08</text>
</g>
<line x1="1" y1="818" x2="899" y2="818" stroke="#21262d" stroke-width="0.5"/>
<g class="r23">
  <circle cx="24" cy="833" r="5" fill="#bc8cff"/>
  <text x="44"  y="837" font-size="13" fill="#8b949e">LucienLassalle/Vsftpd-export</text>
  <text x="270" y="837" font-size="13" fill="#c9d1d9">Add: FTP with SSL (FTPS)</text>
  <text x="882"  y="837" font-size="12" fill="#484f58" text-anchor="end">2025-11-29</text>
</g>
<line x1="1" y1="848" x2="899" y2="848" stroke="#21262d" stroke-width="0.5"/>
<g class="r24">
  <circle cx="24" cy="863" r="5" fill="#bc8cff"/>
  <text x="44"  y="867" font-size="13" fill="#8b949e">Motorsport-DB/teams</text>
  <text x="270" y="867" font-size="13" fill="#c9d1d9">Add: Multiples teams</text>
  <text x="882"  y="867" font-size="12" fill="#484f58" text-anchor="end">2025-11-21</text>
</g>
<line x1="1" y1="878" x2="899" y2="878" stroke="#21262d" stroke-width="0.5"/>
<g class="r25">
  <circle cx="24" cy="893" r="5" fill="#bc8cff"/>
  <text x="44"  y="897" font-size="13" fill="#8b949e">Motorsport-DB/races</text>
  <text x="270" y="897" font-size="13" fill="#c9d1d9">Add: multiples races</text>
  <text x="882"  y="897" font-size="12" fill="#484f58" text-anchor="end">2025-11-21</text>
</g>
<rect x="1" y="908" width="898" height="24" fill="#161b22"/>
<text x="18" y="924" font-size="12" fill="#58a6ff" font-weight="bold">🐛 Bug fixes</text>
<text x="882" y="924" font-size="11" fill="#484f58" text-anchor="end">1 open · 5 merged</text>
<line x1="1" y1="932" x2="899" y2="932" stroke="#21262d" stroke-width="0.5"/>
<g class="r26">
  <circle cx="24" cy="947" r="5" fill="#56d364"/>
  <text x="44"  y="951" font-size="13" fill="#8b949e">xcp-ng-rpms/sudo</text>
  <text x="270" y="951" font-size="13" fill="#c9d1d9">Fix: Conditionnal macros to explain the changes</text>
  <text x="882"  y="951" font-size="12" fill="#484f58" text-anchor="end">2026-06-19</text>
</g>
<line x1="1" y1="962" x2="899" y2="962" stroke="#21262d" stroke-width="0.5"/>
<g class="r27">
  <circle cx="24" cy="977" r="5" fill="#bc8cff"/>
  <text x="44"  y="981" font-size="13" fill="#8b949e">xcp-ng-rpms/openssh</text>
  <text x="270" y="981" font-size="13" fill="#c9d1d9">Fix: Potential ECDSA and CA Authorized_Keys ByPass</text>
  <text x="882"  y="981" font-size="12" fill="#484f58" text-anchor="end">2026-04-20</text>
</g>
<line x1="1" y1="992" x2="899" y2="992" stroke="#21262d" stroke-width="0.5"/>
<g class="r28">
  <circle cx="24" cy="1007" r="5" fill="#bc8cff"/>
  <text x="44"  y="1011" font-size="13" fill="#8b949e">Motorsport-DB/races</text>
  <text x="270" y="1011" font-size="13" fill="#c9d1d9">Fix: broken_links</text>
  <text x="882"  y="1011" font-size="12" fill="#484f58" text-anchor="end">2025-11-23</text>
</g>
<line x1="1" y1="1022" x2="899" y2="1022" stroke="#21262d" stroke-width="0.5"/>
<g class="r29">
  <circle cx="24" cy="1037" r="5" fill="#bc8cff"/>
  <text x="44"  y="1041" font-size="13" fill="#8b949e">Motorsport-DB/teams</text>
  <text x="270" y="1041" font-size="13" fill="#c9d1d9">Fix: broken_links</text>
  <text x="882"  y="1041" font-size="12" fill="#484f58" text-anchor="end">2025-11-23</text>
</g>
<line x1="1" y1="1052" x2="899" y2="1052" stroke="#21262d" stroke-width="0.5"/>
<g class="r30">
  <circle cx="24" cy="1067" r="5" fill="#bc8cff"/>
  <text x="44"  y="1071" font-size="13" fill="#8b949e">Motorsport-DB/drivers</text>
  <text x="270" y="1071" font-size="13" fill="#c9d1d9">Fix: broken_links &amp; bad picture</text>
  <text x="882"  y="1071" font-size="12" fill="#484f58" text-anchor="end">2025-11-23</text>
</g>
<line x1="1" y1="1082" x2="899" y2="1082" stroke="#21262d" stroke-width="0.5"/>
<g class="r31">
  <circle cx="24" cy="1097" r="5" fill="#bc8cff"/>
  <text x="44"  y="1101" font-size="13" fill="#8b949e">xcp-ng/xcp-ng-org</text>
  <text x="270" y="1101" font-size="13" fill="#c9d1d9">fix: simplify HSTS and add warning</text>
  <text x="882"  y="1101" font-size="12" fill="#484f58" text-anchor="end">2025-11-17</text>
</g>
<rect x="1" y="1112" width="898" height="24" fill="#161b22"/>
<text x="18" y="1128" font-size="12" fill="#58a6ff" font-weight="bold">🔄 Dependency updates</text>
<text x="882" y="1128" font-size="11" fill="#484f58" text-anchor="end">1 open · 4 merged</text>
<line x1="1" y1="1136" x2="899" y2="1136" stroke="#21262d" stroke-width="0.5"/>
<g class="r32">
  <circle cx="24" cy="1151" r="5" fill="#56d364"/>
  <text x="44"  y="1155" font-size="13" fill="#8b949e">Mayfly277/ctftime_events_inf</text>
  <text x="270" y="1155" font-size="13" fill="#c9d1d9">Update for Python3</text>
  <text x="882"  y="1155" font-size="12" fill="#484f58" text-anchor="end">2023-04-22</text>
</g>
<line x1="1" y1="1166" x2="899" y2="1166" stroke="#21262d" stroke-width="0.5"/>
<g class="r33">
  <circle cx="24" cy="1181" r="5" fill="#bc8cff"/>
  <text x="44"  y="1185" font-size="13" fill="#8b949e">xcp-ng-rpms/sudo</text>
  <text x="270" y="1185" font-size="13" fill="#c9d1d9">Update sudo to 1.9.17-4 from CentOS10</text>
  <text x="882"  y="1185" font-size="12" fill="#484f58" text-anchor="end">2026-06-18</text>
</g>
<line x1="1" y1="1196" x2="899" y2="1196" stroke="#21262d" stroke-width="0.5"/>
<g class="r34">
  <circle cx="24" cy="1211" r="5" fill="#bc8cff"/>
  <text x="44"  y="1215" font-size="13" fill="#8b949e">xcp-ng-rpms/xcp-ng-release</text>
  <text x="270" y="1215" font-size="13" fill="#c9d1d9">Update .curlrc to fix TLS Handshake</text>
  <text x="882"  y="1215" font-size="12" fill="#484f58" text-anchor="end">2025-03-21</text>
</g>
<line x1="1" y1="1226" x2="899" y2="1226" stroke="#21262d" stroke-width="0.5"/>
<g class="r35">
  <circle cx="24" cy="1241" r="5" fill="#bc8cff"/>
  <text x="44"  y="1245" font-size="13" fill="#8b949e">xcp-ng-rpms/xcp-ng-release</text>
  <text x="270" y="1245" font-size="13" fill="#c9d1d9">Update .curlrc to fix TLS handshake</text>
  <text x="882"  y="1245" font-size="12" fill="#484f58" text-anchor="end">2025-01-20</text>
</g>
<line x1="1" y1="1256" x2="899" y2="1256" stroke="#21262d" stroke-width="0.5"/>
<g class="r36">
  <circle cx="24" cy="1271" r="5" fill="#bc8cff"/>
  <text x="44"  y="1275" font-size="13" fill="#8b949e">xcp-ng-rpms/xcp-ng-release</text>
  <text x="270" y="1275" font-size="13" fill="#c9d1d9">Update .curlrc to fix TLS handshake</text>
  <text x="882"  y="1275" font-size="12" fill="#484f58" text-anchor="end">2025-01-20</text>
</g>
<rect x="1" y="1286" width="898" height="24" fill="#161b22"/>
<text x="18" y="1302" font-size="12" fill="#58a6ff" font-weight="bold">🔧 Other contributions</text>
<text x="882" y="1302" font-size="11" fill="#484f58" text-anchor="end">1 open · 5 closed · 10 merged</text>
<line x1="1" y1="1310" x2="899" y2="1310" stroke="#21262d" stroke-width="0.5"/>
<g class="r37">
  <circle cx="24" cy="1325" r="5" fill="#56d364"/>
  <text x="44"  y="1329" font-size="13" fill="#8b949e">crazy-max/diun</text>
  <text x="270" y="1329" font-size="13" fill="#c9d1d9">Improve watch_repo with newer_only option</text>
  <text x="882"  y="1329" font-size="12" fill="#484f58" text-anchor="end">2026-06-16</text>
</g>
<line x1="1" y1="1340" x2="899" y2="1340" stroke="#21262d" stroke-width="0.5"/>
<g class="r38">
  <circle cx="24" cy="1355" r="5" fill="#f85149"/>
  <text x="44"  y="1359" font-size="13" fill="#8b949e">xcp-ng-rpms/sudo</text>
  <text x="270" y="1359" font-size="13" fill="#c9d1d9">Revert &quot;Update sudo to 1.9.17-4 from CentOS10&quot;</text>
  <text x="882"  y="1359" font-size="12" fill="#484f58" text-anchor="end">2026-06-19</text>
</g>
<line x1="1" y1="1370" x2="899" y2="1370" stroke="#21262d" stroke-width="0.5"/>
<g class="r39">
  <circle cx="24" cy="1385" r="5" fill="#bc8cff"/>
  <text x="44"  y="1389" font-size="13" fill="#8b949e">xapi-project/xen-api</text>
  <text x="270" y="1389" font-size="13" fill="#c9d1d9">xapi: Improve error reporting when pool join fails on TLS verification</text>
  <text x="882"  y="1389" font-size="12" fill="#484f58" text-anchor="end">2026-06-04</text>
</g>
<line x1="1" y1="1400" x2="899" y2="1400" stroke="#21262d" stroke-width="0.5"/>
<g class="r40">
  <circle cx="24" cy="1415" r="5" fill="#bc8cff"/>
  <text x="44"  y="1419" font-size="13" fill="#8b949e">xcp-ng/xcp-ng-build-env</text>
  <text x="270" y="1419" font-size="13" fill="#c9d1d9">Use local image instead of pulling from ghcr.io</text>
  <text x="882"  y="1419" font-size="12" fill="#484f58" text-anchor="end">2026-03-23</text>
</g>
<line x1="1" y1="1430" x2="899" y2="1430" stroke="#21262d" stroke-width="0.5"/>
<g class="r41">
  <circle cx="24" cy="1445" r="5" fill="#f85149"/>
  <text x="44"  y="1449" font-size="13" fill="#8b949e">xcp-ng-rpms/openssh</text>
  <text x="270" y="1449" font-size="13" fill="#c9d1d9">Fix(testsuite): Fix testsuite and fix ciphers</text>
  <text x="882"  y="1449" font-size="12" fill="#484f58" text-anchor="end">2026-02-13</text>
</g>
<line x1="1" y1="1460" x2="899" y2="1460" stroke="#21262d" stroke-width="0.5"/>
<g class="r42">
  <circle cx="24" cy="1475" r="5" fill="#bc8cff"/>
  <text x="44"  y="1479" font-size="13" fill="#8b949e">LucienLassalle/SLE</text>
  <text x="270" y="1479" font-size="13" fill="#c9d1d9">Hotfix: conf</text>
  <text x="882"  y="1479" font-size="12" fill="#484f58" text-anchor="end">2025-12-19</text>
</g>
<line x1="1" y1="1490" x2="899" y2="1490" stroke="#21262d" stroke-width="0.5"/>
<g class="r43">
  <circle cx="24" cy="1505" r="5" fill="#bc8cff"/>
  <text x="44"  y="1509" font-size="13" fill="#8b949e">Motorsport-DB/website</text>
  <text x="270" y="1509" font-size="13" fill="#c9d1d9">Previsualisation and other improvments</text>
  <text x="882"  y="1509" font-size="12" fill="#484f58" text-anchor="end">2025-12-08</text>
</g>
<line x1="1" y1="1520" x2="899" y2="1520" stroke="#21262d" stroke-width="0.5"/>
<g class="r44">
  <circle cx="24" cy="1535" r="5" fill="#f85149"/>
  <text x="44"  y="1539" font-size="13" fill="#8b949e">Motorsport-DB/website</text>
  <text x="270" y="1539" font-size="13" fill="#c9d1d9">In dev</text>
  <text x="882"  y="1539" font-size="12" fill="#484f58" text-anchor="end">2025-12-07</text>
</g>
<line x1="1" y1="1550" x2="899" y2="1550" stroke="#21262d" stroke-width="0.5"/>
<g class="r45">
  <circle cx="24" cy="1565" r="5" fill="#bc8cff"/>
  <text x="44"  y="1569" font-size="13" fill="#8b949e">Motorsport-DB/website</text>
  <text x="270" y="1569" font-size="13" fill="#c9d1d9">In dev</text>
  <text x="882"  y="1569" font-size="12" fill="#484f58" text-anchor="end">2025-11-23</text>
</g>
<line x1="1" y1="1580" x2="899" y2="1580" stroke="#21262d" stroke-width="0.5"/>
<g class="r46">
  <circle cx="24" cy="1595" r="5" fill="#bc8cff"/>
  <text x="44"  y="1599" font-size="13" fill="#8b949e">Motorsport-DB/website</text>
  <text x="270" y="1599" font-size="13" fill="#c9d1d9">Rework interfaces</text>
  <text x="882"  y="1599" font-size="12" fill="#484f58" text-anchor="end">2025-11-21</text>
</g>
<line x1="1" y1="1610" x2="899" y2="1610" stroke="#21262d" stroke-width="0.5"/>
<g class="r47">
  <circle cx="24" cy="1625" r="5" fill="#bc8cff"/>
  <text x="44"  y="1629" font-size="13" fill="#8b949e">xcp-ng/xcp-ng-org</text>
  <text x="270" y="1629" font-size="13" fill="#c9d1d9">docs: How to enable/disable HSTS</text>
  <text x="882"  y="1629" font-size="12" fill="#484f58" text-anchor="end">2025-11-14</text>
</g>
<line x1="1" y1="1640" x2="899" y2="1640" stroke="#21262d" stroke-width="0.5"/>
<g class="r48">
  <circle cx="24" cy="1655" r="5" fill="#bc8cff"/>
  <text x="44"  y="1659" font-size="13" fill="#8b949e">xcp-ng-rpms/net-snmp</text>
  <text x="270" y="1659" font-size="13" fill="#c9d1d9">Deleting an unused patch</text>
  <text x="882"  y="1659" font-size="12" fill="#484f58" text-anchor="end">2025-09-02</text>
</g>
<line x1="1" y1="1670" x2="899" y2="1670" stroke="#21262d" stroke-width="0.5"/>
<g class="r49">
  <circle cx="24" cy="1685" r="5" fill="#bc8cff"/>
  <text x="44"  y="1689" font-size="13" fill="#8b949e">Motorsport-DB/website</text>
  <text x="270" y="1689" font-size="13" fill="#c9d1d9">Fix broken links &amp; better handle for proposal</text>
  <text x="882"  y="1689" font-size="12" fill="#484f58" text-anchor="end">2025-06-12</text>
</g>
<line x1="1" y1="1700" x2="899" y2="1700" stroke="#21262d" stroke-width="0.5"/>
<g class="r50">
  <circle cx="24" cy="1715" r="5" fill="#bc8cff"/>
  <text x="44"  y="1719" font-size="13" fill="#8b949e">Motorsport-DB/website</text>
  <text x="270" y="1719" font-size="13" fill="#c9d1d9">Hotfix for driverdle</text>
  <text x="882"  y="1719" font-size="12" fill="#484f58" text-anchor="end">2025-06-12</text>
</g>
<line x1="1" y1="1730" x2="899" y2="1730" stroke="#21262d" stroke-width="0.5"/>
<g class="r51">
  <circle cx="24" cy="1745" r="5" fill="#f85149"/>
  <text x="44"  y="1749" font-size="13" fill="#8b949e">xcp-ng-rpms/samba</text>
  <text x="270" y="1749" font-size="13" fill="#c9d1d9">8.3 import 4.10.16 25.src.rpm</text>
  <text x="882"  y="1749" font-size="12" fill="#484f58" text-anchor="end">2025-03-28</text>
</g>
<line x1="1" y1="1760" x2="899" y2="1760" stroke="#21262d" stroke-width="0.5"/>
<g class="r52">
  <circle cx="24" cy="1775" r="5" fill="#f85149"/>
  <text x="44"  y="1779" font-size="13" fill="#8b949e">xcp-ng/xcp-ng-release</text>
  <text x="270" y="1779" font-size="13" fill="#c9d1d9">8.2 fix curl ciphers for xoa</text>
  <text x="882"  y="1779" font-size="12" fill="#484f58" text-anchor="end">2025-01-14</text>
</g>
<rect x="1" y="1" width="898" height="1794" fill="none" stroke="#21262d" stroke-width="1" rx="10"/>

</svg>