<svg xmlns="http://www.w3.org/2000/svg" width="900" height="282" viewBox="0 0 900 282">
  <defs><style>text{font-family:'Courier New', Courier, monospace} @keyframes fi{from{opacity:0;transform:translateY(4px)}to{opacity:1;transform:translateY(0)}}.c0{animation:fi .3s 0.00s ease both}.c1{animation:fi .3s 0.04s ease both}.c2{animation:fi .3s 0.08s ease both}.c3{animation:fi .3s 0.12s ease both}.c4{animation:fi .3s 0.16s ease both}.c5{animation:fi .3s 0.20s ease both}.c6{animation:fi .3s 0.24s ease both}.c7{animation:fi .3s 0.28s ease both}.c8{animation:fi .3s 0.32s ease both}.c9{animation:fi .3s 0.36s ease both}.c10{animation:fi .3s 0.40s ease both}.c11{animation:fi .3s 0.44s ease both}.c12{animation:fi .3s 0.48s ease both}.c13{animation:fi .3s 0.52s ease both}.c14{animation:fi .3s 0.56s ease both}.c15{animation:fi .3s 0.60s ease both}.c16{animation:fi .3s 0.64s ease both}.c17{animation:fi .3s 0.68s ease both}.c18{animation:fi .3s 0.72s ease both}.c19{animation:fi .3s 0.76s ease both}.c20{animation:fi .3s 0.80s ease both}.c21{animation:fi .3s 0.84s ease both}.c22{animation:fi .3s 0.88s ease both}.c23{animation:fi .3s 0.92s ease both}.c24{animation:fi .3s 0.96s ease both}.c25{animation:fi .3s 1.00s ease both}</style></defs>
<rect width="900" height="282" fill="#0d1117" rx="10"/>
<rect x="1" y="1" width="898" height="280" fill="none" stroke="#21262d" stroke-width="1" rx="10"/>
<rect width="900" height="36" fill="#161b22" rx="10"/>
<rect y="24" width="900" height="12" fill="#161b22"/>
<text x="14" y="23" font-size="13"><tspan fill="#56d364">loka@nobara:~$</tspan><tspan fill="#484f58"> cat skills.json</tspan></text>
<text x="886" y="23" font-size="13" fill="#f85149"      text-anchor="end">✕</text>
<text x="868" y="23" font-size="13" fill="#484f58" text-anchor="end">□</text>
<text x="850" y="23" font-size="13" fill="#484f58" text-anchor="end">─</text>
<text x="22" y="69" font-size="11" fill="#58a6ff" font-weight="bold">INFRASTRUCTURE &amp; TOOLS</text>
<g class="c0">
  <rect x="22" y="76" width="66" height="26" rx="13" fill="#0d1117" stroke="#58a6ff" stroke-width="1"/>
  <text x="34" y="93" font-size="13" fill="#c9d1d9">XCP-ng</text>
</g>
<g class="c1">
  <rect x="96" y="76" width="115" height="26" rx="13" fill="#0d1117" stroke="#58a6ff" stroke-width="1"/>
  <text x="108" y="93" font-size="13" fill="#c9d1d9">Xen Orchestra</text>
</g>
<g class="c2">
  <rect x="219" y="76" width="66" height="26" rx="13" fill="#0d1117" stroke="#58a6ff" stroke-width="1"/>
  <text x="231" y="93" font-size="13" fill="#c9d1d9">Docker</text>
</g>
<g class="c3">
  <rect x="293" y="76" width="59" height="26" rx="13" fill="#0d1117" stroke="#58a6ff" stroke-width="1"/>
  <text x="305" y="93" font-size="13" fill="#c9d1d9">Linux</text>
</g>
<g class="c4">
  <rect x="360" y="76" width="59" height="26" rx="13" fill="#0d1117" stroke="#58a6ff" stroke-width="1"/>
  <text x="372" y="93" font-size="13" fill="#c9d1d9">Nginx</text>
</g>
<g class="c5">
  <rect x="427" y="76" width="87" height="26" rx="13" fill="#0d1117" stroke="#58a6ff" stroke-width="1"/>
  <text x="439" y="93" font-size="13" fill="#c9d1d9">WireGuard</text>
</g>
<g class="c6">
  <rect x="522" y="76" width="108" height="26" rx="13" fill="#0d1117" stroke="#58a6ff" stroke-width="1"/>
  <text x="534" y="93" font-size="13" fill="#c9d1d9">AdGuard Home</text>
</g>
<g class="c7">
  <rect x="638" y="76" width="101" height="26" rx="13" fill="#0d1117" stroke="#58a6ff" stroke-width="1"/>
  <text x="650" y="93" font-size="13" fill="#c9d1d9">Uptime Kuma</text>
</g>
<g class="c8">
  <rect x="747" y="76" width="66" height="26" rx="13" fill="#0d1117" stroke="#58a6ff" stroke-width="1"/>
  <text x="759" y="93" font-size="13" fill="#c9d1d9">Ollama</text>
</g>
<g class="c9">
  <rect x="22" y="110" width="87" height="26" rx="13" fill="#0d1117" stroke="#58a6ff" stroke-width="1"/>
  <text x="34" y="127" font-size="13" fill="#c9d1d9">Portainer</text>
</g>
<g class="c10">
  <rect x="117" y="110" width="73" height="26" rx="13" fill="#0d1117" stroke="#58a6ff" stroke-width="1"/>
  <text x="129" y="127" font-size="13" fill="#c9d1d9">Synapse</text>
</g>
<g class="c11">
  <rect x="198" y="110" width="73" height="26" rx="13" fill="#0d1117" stroke="#58a6ff" stroke-width="1"/>
  <text x="210" y="127" font-size="13" fill="#c9d1d9">Systemd</text>
</g>
<g class="c12">
  <rect x="279" y="110" width="94" height="26" rx="13" fill="#0d1117" stroke="#58a6ff" stroke-width="1"/>
  <text x="291" y="127" font-size="13" fill="#c9d1d9">Prometheus</text>
</g>
<g class="c13">
  <rect x="381" y="110" width="52" height="26" rx="13" fill="#0d1117" stroke="#58a6ff" stroke-width="1"/>
  <text x="393" y="127" font-size="13" fill="#c9d1d9">Loki</text>
</g>
<g class="c14">
  <rect x="441" y="110" width="73" height="26" rx="13" fill="#0d1117" stroke="#58a6ff" stroke-width="1"/>
  <text x="453" y="127" font-size="13" fill="#c9d1d9">Grafana</text>
</g>
<g class="c15">
  <rect x="522" y="110" width="115" height="26" rx="13" fill="#0d1117" stroke="#58a6ff" stroke-width="1"/>
  <text x="534" y="127" font-size="13" fill="#c9d1d9">RPM packaging</text>
</g>
<text x="22" y="167" font-size="11" fill="#f85149" font-weight="bold">SECURITY</text>
<g class="c16">
  <rect x="22" y="174" width="108" height="26" rx="13" fill="#0d1117" stroke="#f85149" stroke-width="1"/>
  <text x="34" y="191" font-size="13" fill="#c9d1d9">CVE Patching</text>
</g>
<g class="c17">
  <rect x="138" y="174" width="80" height="26" rx="13" fill="#0d1117" stroke="#f85149" stroke-width="1"/>
  <text x="150" y="191" font-size="13" fill="#c9d1d9">fail2ban</text>
</g>
<g class="c18">
  <rect x="226" y="174" width="143" height="26" rx="13" fill="#0d1117" stroke="#f85149" stroke-width="1"/>
  <text x="238" y="191" font-size="13" fill="#c9d1d9">OpenSSH hardening</text>
</g>
<g class="c19">
  <rect x="377" y="174" width="73" height="26" rx="13" fill="#0d1117" stroke="#f85149" stroke-width="1"/>
  <text x="389" y="191" font-size="13" fill="#c9d1d9">OpenSSL</text>
</g>
<g class="c20">
  <rect x="458" y="174" width="101" height="26" rx="13" fill="#0d1117" stroke="#f85149" stroke-width="1"/>
  <text x="470" y="191" font-size="13" fill="#c9d1d9">Pen Testing</text>
</g>
<g class="c21">
  <rect x="567" y="174" width="45" height="26" rx="13" fill="#0d1117" stroke="#f85149" stroke-width="1"/>
  <text x="579" y="191" font-size="13" fill="#c9d1d9">CTF</text>
</g>
<text x="22" y="231" font-size="11" fill="#bc8cff" font-weight="bold">DATABASES</text>
<g class="c22">
  <rect x="22" y="238" width="94" height="26" rx="13" fill="#0d1117" stroke="#bc8cff" stroke-width="1"/>
  <text x="34" y="255" font-size="13" fill="#c9d1d9">PostgreSQL</text>
</g>
<g class="c23">
  <rect x="124" y="238" width="59" height="26" rx="13" fill="#0d1117" stroke="#bc8cff" stroke-width="1"/>
  <text x="136" y="255" font-size="13" fill="#c9d1d9">MySQL</text>
</g>
<g class="c24">
  <rect x="191" y="238" width="73" height="26" rx="13" fill="#0d1117" stroke="#bc8cff" stroke-width="1"/>
  <text x="203" y="255" font-size="13" fill="#c9d1d9">MariaDB</text>
</g>
<g class="c25">
  <rect x="272" y="238" width="66" height="26" rx="13" fill="#0d1117" stroke="#bc8cff" stroke-width="1"/>
  <text x="284" y="255" font-size="13" fill="#c9d1d9">SQLite</text>
</g>

</svg>