<svg xmlns="http://www.w3.org/2000/svg" width="900" height="146" viewBox="0 0 900 146">
  <defs><style>text{font-family:'Courier New', Courier, monospace} </style></defs>
<rect width="900" height="146" fill="#0d1117" rx="10"/>
<rect x="1" y="1" width="898" height="144" fill="none" stroke="#21262d" stroke-width="1" rx="10"/>
<rect width="900" height="36" fill="#161b22" rx="10"/>
<rect y="24" width="900" height="12" fill="#161b22"/>
<text x="14" y="23" font-size="13"><tspan fill="#56d364">loka@nobara:~$</tspan><tspan fill="#484f58"> ./stats --all</tspan></text>
<text x="886" y="23" font-size="13" fill="#f85149"      text-anchor="end">✕</text>
<text x="868" y="23" font-size="13" fill="#484f58" text-anchor="end">□</text>
<text x="850" y="23" font-size="13" fill="#484f58" text-anchor="end">─</text>
<text x="75" y="62" font-size="12" fill="#8b949e" text-anchor="middle">✓  PRs Merged</text>
<text x="75" y="110" font-size="32" font-weight="bold" fill="#56d364" text-anchor="middle">77</text>
<line x1="150" y1="46" x2="150" y2="132" stroke="#21262d" stroke-width="1"/>
<text x="225" y="62" font-size="12" fill="#8b949e" text-anchor="middle">⌥  PRs Open</text>
<text x="225" y="110" font-size="32" font-weight="bold" fill="#f0883e" text-anchor="middle">5</text>
<line x1="300" y1="46" x2="300" y2="132" stroke="#21262d" stroke-width="1"/>
<text x="375" y="62" font-size="12" fill="#8b949e" text-anchor="middle">★  Stars Earned</text>
<text x="375" y="110" font-size="32" font-weight="bold" fill="#bc8cff" text-anchor="middle">11</text>
<line x1="450" y1="46" x2="450" y2="132" stroke="#21262d" stroke-width="1"/>
<text x="525" y="62" font-size="12" fill="#8b949e" text-anchor="middle">!  Issues Opened</text>
<text x="525" y="110" font-size="32" font-weight="bold" fill="#f85149" text-anchor="middle">2</text>
<line x1="600" y1="46" x2="600" y2="132" stroke="#21262d" stroke-width="1"/>
<text x="675" y="62" font-size="12" fill="#8b949e" text-anchor="middle">⊞  Public Repos</text>
<text x="675" y="110" font-size="32" font-weight="bold" fill="#58a6ff" text-anchor="middle">14</text>
<line x1="750" y1="46" x2="750" y2="132" stroke="#21262d" stroke-width="1"/>
<text x="825" y="62" font-size="12" fill="#8b949e" text-anchor="middle">♟  Followers</text>
<text x="825" y="110" font-size="32" font-weight="bold" fill="#8b949e" text-anchor="middle">8</text>

</svg>